{
	"asset":{
		"generator":"Khronos glTF Blender I/O v4.3.47",
		"version":"2.0"
	},
	"extensionsUsed":[
		"KHR_materials_specular",
		"KHR_materials_ior"
	],
	"scene":0,
	"scenes":[
		{
			"name":"Scene",
			"nodes":[
				2
			]
		}
	],
	"nodes":[
		{
			"name":"bip_head",
			"rotation":[
				0.7071067690849304,
				1.376707245981379e-07,
				1.387097512406399e-07,
				0.7071067690849304
			],
			"scale":[
				1,
				1,
				1.0000001192092896
			]
		},
		{
			"mesh":0,
			"name":"crown",
			"skin":0
		},
		{
			"children":[
				1,
				0
			],
			"name":"crown.qc_skeleton",
			"rotation":[
				0.7506422400474548,
				0.036651361733675,
				0.032172225415706635,
				0.6589067578315735
			]
		}
	],
	"materials":[
		{
			"doubleSided":true,
			"extensions":{
				"KHR_materials_specular":{
					"specularFactor":0
				},
				"KHR_materials_ior":{
					"ior":1.4499999284744263
				}
			},
			"name":"crown",
			"pbrMetallicRoughness":{
				"baseColorTexture":{
					"index":0
				},
				"metallicFactor":0,
				"roughnessFactor":0.5
			}
		}
	],
	"meshes":[
		{
			"name":"crown",
			"primitives":[
				{
					"attributes":{
						"POSITION":0,
						"NORMAL":1,
						"TEXCOORD_0":2,
						"JOINTS_0":3,
						"WEIGHTS_0":4
					},
					"indices":5,
					"material":0
				}
			]
		}
	],
	"textures":[
		{
			"sampler":0,
			"source":0
		}
	],
	"images":[
		{
			"mimeType":"image/png",
			"name":"crown",
			"uri":"crown.png"
		}
	],
	"skins":[
		{
			"inverseBindMatrices":6,
			"joints":[
				0
			],
			"name":"crown.qc_skeleton"
		}
	],
	"accessors":[
		{
			"bufferView":0,
			"componentType":5126,
			"count":1988,
			"max":[
				4.407454013824463,
				8.110658645629883,
				6.813640594482422
			],
			"min":[
				-4.9749956130981445,
				3.2541422843933105,
				-3.530306816101074
			],
			"type":"VEC3"
		},
		{
			"bufferView":1,
			"componentType":5126,
			"count":1988,
			"type":"VEC3"
		},
		{
			"bufferView":2,
			"componentType":5126,
			"count":1988,
			"type":"VEC2"
		},
		{
			"bufferView":3,
			"componentType":5121,
			"count":1988,
			"type":"VEC4"
		},
		{
			"bufferView":4,
			"componentType":5126,
			"count":1988,
			"type":"VEC4"
		},
		{
			"bufferView":5,
			"componentType":5123,
			"count":4392,
			"type":"SCALAR"
		},
		{
			"bufferView":6,
			"componentType":5126,
			"count":1,
			"type":"MAT4"
		}
	],
	"bufferViews":[
		{
			"buffer":0,
			"byteLength":23856,
			"byteOffset":0,
			"target":34962
		},
		{
			"buffer":0,
			"byteLength":23856,
			"byteOffset":23856,
			"target":34962
		},
		{
			"buffer":0,
			"byteLength":15904,
			"byteOffset":47712,
			"target":34962
		},
		{
			"buffer":0,
			"byteLength":7952,
			"byteOffset":63616,
			"target":34962
		},
		{
			"buffer":0,
			"byteLength":31808,
			"byteOffset":71568,
			"target":34962
		},
		{
			"buffer":0,
			"byteLength":8784,
			"byteOffset":103376,
			"target":34963
		},
		{
			"buffer":0,
			"byteLength":64,
			"byteOffset":112160
		}
	],
	"samplers":[
		{
			"magFilter":9729,
			"minFilter":9987
		}
	],
	"buffers":[
		{
			"byteLength":112224,
			"uri":"untitled.bin"
		}
	]
}
